<?xml version="1.0" encoding="utf-8" ?>
<svg xmlns="http://www.w3.org/2000/svg" xmlns:xlink="http://www.w3.org/1999/xlink" width="1024" height="1024">
	<path transform="scale(2 2)" d="M200.061 205.745C181.697 206.703 163.519 201.553 149.25 189.735C101.383 150.091 125.97 71.5937 188.713 66.0444C224.116 64.9477 256.907 86.8933 263 122.954C268.897 157.849 248.827 192.344 214.669 202.666C209.879 204.114 204.981 204.905 200.061 205.745Z"/>
	<path transform="scale(2 2)" d="M344.742 437.588C342.558 434.991 339.704 432.65 337.257 430.28C303.265 397.366 251.903 348.493 251.263 297.113C250.659 248.577 291.664 203.427 340.879 202.717C342.27 202.554 343.726 202.541 345.125 202.55C396.275 202.903 439.226 246.951 438.59 298.294C438.2 329.684 410.909 364.69 391.642 387.88C381.831 399.69 373.582 409.202 362.659 419.834L347.078 435.097L344.742 437.588ZM342.769 251.297C327.142 254.81 330.212 269.321 330.266 281.523L320.65 281.498C314.665 281.488 309.229 281.283 304.645 285.884C298.793 291.758 298.733 301.186 304.798 306.937C309.517 311.412 314.721 311.296 320.829 311.284L330.266 311.255C330.227 324.805 328.282 342.426 347.078 341.706C362.592 338.814 358.908 323.037 359.376 311.255C363.918 311.268 374.432 311.889 378.246 310.826C392.294 306.912 392.651 285.687 378.342 282.026C373.9 280.89 364.387 281.507 359.376 281.523L359.391 271.768C359.388 260.804 356.175 249.976 342.769 251.297Z"/>
	<path transform="scale(2 2)" d="M150.062 360.136L109.661 360.143C84.2378 360.144 72.4475 362.152 74.8038 333.26C79.5539 275.015 125.609 235.302 181.885 229.743C201.502 229.167 219.471 233.307 237.226 241.61C219.088 275.106 219.913 329.303 243.917 360.136L150.062 360.136Z"/>
</svg>
